
      <svg data-logo="logo" xmlns="http://www.w3.org/2000/svg" viewBox="0 0 219 43">
        <g id="logogram" transform="translate(0, 1) rotate(0)"><path d="M39.1077 32.8531C36.2133 38.0618 30.3201 40.54 24.3612 40.54H0.452637C25.3415 37.4289 42.6749 24.9844 44.8971 7.65109C47.1193 24.9844 64.4526 37.4289 89.3415 40.54H65.433C59.4741 40.54 53.5808 38.0618 50.6864 32.8531C47.5536 27.2155 45.5577 20.8363 44.8971 13.8733C44.2365 20.8363 42.2405 27.2155 39.1077 32.8531Z" fill="#00F597"/><path d="M25.4349 31.0122C24.0388 31.7983 22.5701 32.5366 21.0324 33.2243C20.1589 30.2069 19.8374 27.0411 20.0938 23.8875C20.4329 19.7155 21.7727 15.6934 23.9946 12.1776C26.2165 8.66176 29.2518 5.76059 32.8317 3.73116C36.4116 1.70174 40.4257 0.606653 44.5182 0.542929C48.6108 0.479195 52.6555 1.44879 56.2941 3.36581C59.9328 5.28282 63.0531 8.08807 65.3785 11.5331C67.704 14.9782 69.1629 18.9567 69.6261 23.1162C70.0049 26.5184 69.708 29.9559 68.7618 33.2243C67.224 32.5366 65.7554 31.7982 64.3592 31.0122C64.9478 28.6226 65.1128 26.1368 64.8386 23.6738C64.4651 20.3196 63.2885 17.1114 61.4133 14.3333C59.5381 11.5553 57.0219 9.29305 54.0877 7.74718C51.1534 6.20128 47.8917 5.41942 44.5916 5.4708C41.2913 5.52219 38.0544 6.40527 35.1677 8.04176C32.2808 9.67829 29.8331 12.0178 28.0413 14.853C26.2496 17.6882 25.1692 20.9315 24.8957 24.2959C24.7119 26.5572 24.8965 28.8264 25.4349 31.0122Z" fill="#00FF2A"/></g>
        <g id="logotype" transform="translate(96, 12.5)"><path fill="#0fc5d2" d="M12.31 3.33L6.81 3.33L6.81-0.19L22.11-0.19L22.11 3.33L16.61 3.33L16.61 18L12.31 18L12.31 3.33ZM26.96 18L22.70 18L22.70 4.35L26.84 4.35L26.84 6.84L26.98 6.84Q27.35 5.49 28.20 4.83Q29.05 4.18 30.17 4.18L30.17 4.18Q30.46 4.18 30.78 4.22Q31.11 4.25 31.38 4.33L31.38 4.33L31.38 8.04Q31.07 7.93 30.58 7.87Q30.08 7.82 29.69 7.82L29.69 7.82Q28.91 7.82 28.29 8.17Q27.67 8.52 27.31 9.13Q26.96 9.74 26.96 10.55L26.96 10.55L26.96 18ZM35.39 18.24L35.39 18.24Q34.09 18.24 33.07 17.80Q32.05 17.35 31.47 16.46Q30.90 15.56 30.90 14.22L30.90 14.22Q30.90 13.08 31.30 12.30Q31.69 11.52 32.40 11.03Q33.11 10.54 34.02 10.29Q34.94 10.03 35.98 9.94L35.98 9.94Q37.14 9.85 37.85 9.73Q38.55 9.61 38.88 9.38Q39.21 9.15 39.21 8.73L39.21 8.73L39.21 8.69Q39.21 8.21 38.99 7.88Q38.77 7.55 38.36 7.38Q37.94 7.21 37.36 7.21L37.36 7.21Q36.77 7.21 36.31 7.38Q35.86 7.55 35.56 7.87Q35.27 8.19 35.15 8.61L35.15 8.61L31.29 8.11Q31.56 6.94 32.35 6.06Q33.13 5.17 34.41 4.68Q35.68 4.18 37.39 4.18L37.39 4.18Q38.66 4.18 39.77 4.48Q40.87 4.78 41.70 5.36Q42.53 5.94 43.00 6.79Q43.46 7.64 43.46 8.73L43.46 8.73L43.46 18L39.46 18L39.46 16.08L39.35 16.08Q38.98 16.79 38.41 17.27Q37.85 17.74 37.09 17.99Q36.34 18.24 35.39 18.24ZM36.69 15.42L36.69 15.42Q37.41 15.42 37.99 15.13Q38.57 14.84 38.91 14.33Q39.25 13.81 39.25 13.14L39.25 13.14L39.25 11.84Q39.07 11.93 38.79 12.02Q38.52 12.10 38.19 12.17Q37.86 12.24 37.53 12.29Q37.20 12.35 36.89 12.40L36.89 12.40Q36.27 12.48 35.83 12.69Q35.39 12.90 35.16 13.23Q34.93 13.56 34.93 14.02L34.93 14.02Q34.93 14.47 35.16 14.78Q35.39 15.09 35.78 15.26Q36.17 15.42 36.69 15.42ZM50.99 18.26L50.99 18.26Q48.85 18.26 47.32 17.37Q45.78 16.49 44.95 14.91Q44.13 13.32 44.13 11.23L44.13 11.23Q44.13 9.11 44.95 7.53Q45.78 5.95 47.32 5.07Q48.85 4.18 50.99 4.18L50.99 4.18Q52.30 4.18 53.38 4.52Q54.47 4.87 55.29 5.49Q56.11 6.12 56.61 7.02Q57.12 7.92 57.28 9.03L57.28 9.03L53.35 9.69Q53.25 9.15 53.05 8.73Q52.85 8.32 52.56 8.03Q52.27 7.73 51.89 7.59Q51.50 7.44 51.04 7.44L51.04 7.44Q50.22 7.44 49.65 7.89Q49.07 8.33 48.78 9.18Q48.48 10.03 48.48 11.20L48.48 11.20Q48.48 12.37 48.78 13.23Q49.07 14.08 49.65 14.54Q50.22 15.00 51.04 15.00L51.04 15.00Q51.52 15.00 51.89 14.84Q52.27 14.69 52.57 14.39Q52.87 14.09 53.07 13.66Q53.27 13.23 53.36 12.68L53.36 12.68L57.29 13.31Q57.13 14.46 56.62 15.37Q56.12 16.28 55.30 16.93Q54.48 17.57 53.39 17.91Q52.30 18.26 50.99 18.26ZM64.27 11.35L61.76 14.37L61.76 9.28L62.37 9.28L66.27 4.35L71.12 4.35L65.39 11.35L64.27 11.35ZM62.17 18L57.91 18L57.91-0.19L62.17-0.19L62.17 18ZM71.31 18L66.39 18L62.76 12.30L65.56 9.27L71.31 18ZM75.54 18L71.12 18L71.12-0.19L75.85-0.19L80.93 8.03Q81.42 8.84 81.89 9.72Q82.36 10.59 82.82 11.65Q83.29 12.71 83.76 14.09L83.76 14.09L83.36 14.09Q83.29 13.09 83.21 11.87Q83.13 10.65 83.07 9.50Q83.01 8.34 83.01 7.55L83.01 7.55L83.01-0.19L87.43-0.19L87.43 18L82.68 18L78.03 10.47Q77.40 9.43 76.90 8.50Q76.39 7.58 75.88 6.49Q75.38 5.40 74.69 3.94L74.69 3.94L75.19 3.94Q75.28 5.24 75.36 6.48Q75.44 7.72 75.49 8.75Q75.54 9.78 75.54 10.47L75.54 10.47L75.54 18ZM94.98 18.26L94.98 18.26Q92.84 18.26 91.29 17.41Q89.74 16.56 88.92 14.98Q88.10 13.41 88.10 11.23L88.10 11.23Q88.10 9.13 88.92 7.54Q89.74 5.95 91.26 5.07Q92.77 4.18 94.82 4.18L94.82 4.18Q96.26 4.18 97.46 4.63Q98.67 5.08 99.55 5.97Q100.44 6.85 100.92 8.15Q101.40 9.44 101.40 11.14L101.40 11.14L101.40 12.21L89.61 12.21L89.61 9.74L99.38 9.74L97.39 10.32Q97.39 9.37 97.10 8.69Q96.81 8.00 96.25 7.64Q95.69 7.27 94.86 7.27L94.86 7.27Q94.03 7.27 93.45 7.64Q92.88 8.01 92.58 8.68Q92.28 9.35 92.28 10.24L92.28 10.24L92.28 12.02Q92.28 13.07 92.63 13.77Q92.98 14.47 93.60 14.82Q94.22 15.17 95.05 15.17L95.05 15.17Q95.63 15.17 96.10 15.01Q96.57 14.85 96.90 14.53Q97.24 14.22 97.41 13.76L97.41 13.76L101.21 14.39Q100.86 15.56 100.03 16.43Q99.19 17.30 97.92 17.78Q96.64 18.26 94.98 18.26ZM107.76 18.26L107.76 18.26Q106.01 18.26 104.67 17.76Q103.33 17.27 102.49 16.33Q101.64 15.40 101.40 14.09L101.40 14.09L105.35 13.47Q105.61 14.36 106.22 14.81Q106.83 15.27 107.92 15.27L107.92 15.27Q108.81 15.27 109.32 14.95Q109.83 14.64 109.83 14.13L109.83 14.13Q109.83 13.65 109.43 13.37Q109.02 13.08 108.16 12.91L108.16 12.91L105.78 12.45Q103.76 12.06 102.75 11.07Q101.74 10.09 101.74 8.52L101.74 8.52Q101.74 7.15 102.48 6.18Q103.22 5.22 104.57 4.70Q105.92 4.18 107.75 4.18L107.75 4.18Q109.46 4.18 110.72 4.64Q111.98 5.10 112.76 5.95Q113.53 6.79 113.77 7.97L113.77 7.97L110.01 8.56Q109.82 7.88 109.26 7.50Q108.69 7.11 107.82 7.11L107.82 7.11Q107.05 7.11 106.52 7.42Q105.99 7.73 105.99 8.26L105.99 8.26Q105.99 8.67 106.32 8.99Q106.65 9.30 107.53 9.47L107.53 9.47L110.14 9.96Q112.17 10.35 113.16 11.25Q114.16 12.15 114.16 13.64L114.16 13.64Q114.16 15.05 113.33 16.08Q112.51 17.12 111.07 17.69Q109.63 18.26 107.76 18.26ZM113.56 4.35L122.08 4.35L122.08 7.51L113.56 7.51L113.56 4.35ZM115.36 14.20L115.36 1.11L119.62 1.11L119.62 13.83Q119.62 14.36 119.88 14.62Q120.14 14.89 120.71 14.89L120.71 14.89Q120.93 14.89 121.33 14.84Q121.72 14.79 121.89 14.74L121.89 14.74L122.44 17.84Q121.72 18.05 121.05 18.12Q120.38 18.20 119.78 18.20L119.78 18.20Q117.61 18.20 116.49 17.18Q115.36 16.16 115.36 14.20L115.36 14.20Z"/></g>
        
      </svg>
    